<?xml version="1.0" encoding="UTF-8" ?>
<svg xmlns="http://www.w3.org/2000/svg" xmlns:xlink="http://www.w3.org/1999/xlink" width="395pt" height="133pt" viewBox="0.00 0.00 395.00 132.80">
<g id="graph0" class="graph" transform="scale(1 1) rotate(0) translate(4 128.8)">
<title>%0</title>
<polygon fill="#ffffff" stroke="transparent" points="-4,4 -4,-128.8 391,-128.8 391,4 -4,4"/>
<!-- PoisonSystem -->
<g id="node1" class="node">
<title>PoisonSystem</title>
<ellipse fill="#ffffff" stroke="#000000" cx="153" cy="-106.8" rx="72" ry="18"/>
<text text-anchor="middle" x="153" y="-102" font-family="Times,serif" font-size="16.00" fill="#000000">PoisonSystem</text>
</g>
<!-- GameOverSystem -->
<g id="node2" class="node">
<title>GameOverSystem</title>
<ellipse fill="#ffffff" stroke="#000000" cx="72" cy="-18" rx="72" ry="18"/>
<text text-anchor="middle" x="72" y="-13.2" font-family="Times,serif" font-size="16.00" fill="#000000">GameOverSystem</text>
</g>
<!-- PoisonSystem&#45;&gt;GameOverSystem -->
<g id="edge1" class="edge">
<title>PoisonSystem-&gt;GameOverSystem</title>
<path fill="none" stroke="#000000" d="M136.6084,-88.83C124.6731,-75.7453 108.3458,-57.8457 95.091,-43.3146"/>
<polygon fill="#000000" stroke="#000000" points="97.4158,-40.6696 88.0908,-35.6402 92.2441,-45.3871 97.4158,-40.6696"/>
<text text-anchor="middle" x="138.6585" y="-58.2" font-family="Times,serif" font-size="14.00" fill="#000000">Health</text>
</g>
<!-- HealthBarSystem -->
<g id="node3" class="node">
<title>HealthBarSystem</title>
<ellipse fill="#ffffff" stroke="#000000" cx="234" cy="-18" rx="72" ry="18"/>
<text text-anchor="middle" x="234" y="-13.2" font-family="Times,serif" font-size="16.00" fill="#000000">HealthBarSystem</text>
</g>
<!-- PoisonSystem&#45;&gt;HealthBarSystem -->
<g id="edge2" class="edge">
<title>PoisonSystem-&gt;HealthBarSystem</title>
<path fill="none" stroke="#000000" d="M169.3916,-88.83C181.3269,-75.7453 197.6542,-57.8457 210.909,-43.3146"/>
<polygon fill="#000000" stroke="#000000" points="213.7559,-45.3871 217.9092,-35.6402 208.5842,-40.6696 213.7559,-45.3871"/>
<text text-anchor="middle" x="218.6585" y="-58.2" font-family="Times,serif" font-size="14.00" fill="#000000">Health</text>
</g>
<!-- MovementSystem -->
<g id="node4" class="node">
<title>MovementSystem</title>
<ellipse fill="#ffffff" stroke="#000000" cx="315" cy="-106.8" rx="72" ry="18"/>
<text text-anchor="middle" x="315" y="-102" font-family="Times,serif" font-size="16.00" fill="#000000">MovementSystem</text>
</g>
</g>
</svg>